<?xml version="1.0" encoding="UTF-8" standalone="no"?>
<!-- Generator: Adobe Illustrator 26.0.2, SVG Export Plug-In . SVG Version: 6.00 Build 0)  -->

<svg
   xmlns:dc="http://purl.org/dc/elements/1.1/"
   xmlns:cc="http://creativecommons.org/ns#"
   xmlns:rdf="http://www.w3.org/1999/02/22-rdf-syntax-ns#"
   xmlns:svg="http://www.w3.org/2000/svg"
   xmlns="http://www.w3.org/2000/svg"
   xmlns:sodipodi="http://sodipodi.sourceforge.net/DTD/sodipodi-0.dtd"
   xmlns:inkscape="http://www.inkscape.org/namespaces/inkscape"
   version="1.1"
   id="Layer_1"
   x="0px"
   y="0px"
   viewBox="0 0 1000 400"
   style="enable-background:new 0 0 1000 400;"
   xml:space="preserve"
   sodipodi:docname="trdrop_logo_text_333333.svg"
   inkscape:version="0.92.3 (2405546, 2018-03-11)"><metadata
   id="metadata3803"><rdf:RDF><cc:Work
       rdf:about=""><dc:format>image/svg+xml</dc:format><dc:type
         rdf:resource="http://purl.org/dc/dcmitype/StillImage" /><dc:title></dc:title></cc:Work></rdf:RDF></metadata><defs
   id="defs3801" /><sodipodi:namedview
   pagecolor="#ffffff"
   bordercolor="#666666"
   borderopacity="1"
   objecttolerance="10"
   gridtolerance="10"
   guidetolerance="10"
   inkscape:pageopacity="0"
   inkscape:pageshadow="2"
   inkscape:window-width="1910"
   inkscape:window-height="1050"
   id="namedview3799"
   showgrid="false"
   inkscape:zoom="1.716"
   inkscape:cx="398.6014"
   inkscape:cy="200"
   inkscape:window-x="4"
   inkscape:window-y="24"
   inkscape:window-maximized="0"
   inkscape:current-layer="Layer_1" />
<style
   type="text/css"
   id="style3778">
	.st0{fill:#E7E7E7;}
</style>
<g
   id="g3790"
   style="opacity:1;fill:#333333;fill-opacity:1">
	<path
   class="st0"
   d="M440.46,302.87c-4.02,0-7.68,0.01-11.33-0.01c-0.8,0-1.61-0.11-2.95-0.21c0-15.53,0-30.89,0-47.17   c-4.03,6.1-7.14,11.56-10.97,16.45c-14.87,19.01-34.74,29.26-58.54,31.41c-33.02,2.99-61.32-6.78-82.15-33.52   c-15.45-19.83-20.51-43.01-18.95-67.7c1.44-22.78,8.9-43.29,24.98-60.01c20.64-21.47,46.44-29.53,75.41-26.37   c33.04,3.6,48.68,14.8,69.82,47.43c0-42.32,0-83.78,0-125.64c5.11,0,9.69,0,14.69,0C440.46,125.64,440.46,213.96,440.46,302.87z    M426.33,209.8c-0.38-4.14-0.57-8.31-1.16-12.42c-4.16-28.84-18.42-50.78-45.81-61.89c-27.67-11.22-54.92-8.78-78.93,9.66   c-24.58,18.88-33.12,45.2-29.64,75.36c6.59,57,60.17,81.12,105.99,64.47C407.27,273.9,425.99,244.96,426.33,209.8z"
   id="path3780"
   style="fill:#333333;fill-opacity:1" />
	<path
   class="st0"
   d="M794.92,256.31c0,38.61,0,77.22,0,116.19c-4.88,0-9.45,0-14.41,0c0-85.09,0-170.3,0-255.84   c4.58,0,9.14,0,14.28,0c0,15.48,0,30.84,0,46.95c5.04-7.03,9.05-13.72,14.11-19.49c14.62-16.69,33.49-25.64,55.4-27.51   c33.66-2.88,62.24,7.27,82.8,35.2c14.24,19.35,18.83,41.64,17.36,65.24c-1.39,22.45-8.73,42.74-24.58,59.14   c-20.82,21.55-46.86,29.09-76.06,26.11C833.05,299.16,810.37,283.48,794.92,256.31z M950.12,209.5   c-0.88-63.84-57.67-91.86-105.93-74.64c-29.72,10.6-48.54,38.77-49.29,73.51c-1.11,51.84,41.38,88.49,92.16,79.51   C924.99,281.17,950.23,249.8,950.12,209.5z"
   id="path3782"
   style="fill:#333333;fill-opacity:1" />
	<path
   class="st0"
   d="M146.94,278.94c1.37,2.84,3.16,6.54,5.13,10.62c-10.66,7.81-22.37,12.56-35.47,13.18   c-5.58,0.26-11.42-0.06-16.81-1.43c-17.29-4.4-24.63-17.48-27.58-33.76c-0.86-4.72-1.14-9.6-1.15-14.4   C70.96,215.67,71,178.18,71,140.69c0-1.98,0-3.97,0-6.55c-9.18,0-18.07,0-27.31,0c0-4.5,0-8.4,0-12.92c8.92,0,17.81,0,27.27,0   c0-15.66,0-30.73,0-46.12c4.82,0,9.06,0,13.81,0c0,15.23,0,30.31,0,45.89c21.41,0,42.31,0,63.56,0c0,4.41,0,8.31,0,12.74   c-20.97,0-41.87,0-63.01,0c-0.19,1.42-0.42,2.36-0.42,3.3c0.02,38.65,0.03,77.31,0.15,115.96c0.01,3.64,0.48,7.33,1.23,10.9   c3.96,18.97,16.82,27.77,35.93,23.66C130.52,285.75,138.39,281.98,146.94,278.94z"
   id="path3784"
   style="fill:#333333;fill-opacity:1" />
	<path
   class="st0"
   d="M189.87,302.66c-5.26,0-9.71,0-14.46,0c0-62.07,0-123.93,0-186.05c4.82,0,9.38,0,14.35,0   c0,14.89,0,29.49,0,44.09c7.12-13.09,15.49-24.8,28.16-32.88c12.55-8,26.37-11.35,41.44-11.77c0,5.06,0,9.65,0,14.92   c-4.18,0.45-8.44,0.65-12.61,1.41c-29.62,5.34-49.1,24.89-54.73,55.29c-1.33,7.16-1.99,14.53-2.05,21.81   c-0.23,29.15-0.09,58.3-0.09,87.46C189.87,298.73,189.87,300.53,189.87,302.66z"
   id="path3786"
   style="fill:#333333;fill-opacity:1" />
	<path
   class="st0"
   d="M491.53,116.54c4.72,0,9.16,0,14.21,0c0,14.84,0,29.52,0,44.21c7.16-13.28,15.62-24.94,28.35-33.02   c12.54-7.96,26.33-11.3,41.34-11.65c0,5.2,0,9.8,0,14.93c-4.2,0.43-8.32,0.63-12.37,1.3c-27.89,4.59-45.34,21.14-53.01,47.85   c-2.5,8.69-3.83,17.97-3.98,27.01c-0.49,29.81-0.18,59.63-0.18,89.45c0,1.82,0,3.64,0,5.85c-4.79,0-9.36,0-14.35,0   C491.53,240.81,491.53,178.94,491.53,116.54z"
   id="path3788"
   style="fill:#333333;fill-opacity:1" />
</g>
<g
   id="g3796"
   style="fill:#333333;fill-opacity:1">
	<path
   class="st0"
   d="M583.72,259.52c20.58,34.34,52.16,49.71,91.87,45.99c30.84-2.89,54.18-18.96,71.08-45.44   c-55-31.75-109.29-63.1-164.42-94.93C566.26,197.35,565.45,229.05,583.72,259.52z"
   id="path3792"
   style="fill:#333333;fill-opacity:1" />
	<path
   class="st0"
   d="M751.35,243.47c11.58-34.7,6.45-67.07-18.57-94.82c-21.84-24.23-45.85-46.51-68.91-69.64   c-0.44-0.44-1.03-0.75-1.98-1.43c-23.56,24.42-48.39,47.48-71.89,72.73L751.35,243.47z"
   id="path3794"
   style="fill:#333333;fill-opacity:1" />
</g>
</svg>