<?xml version="1.0" encoding="utf-8"?>
<!-- Generator: Adobe Illustrator 15.0.0, SVG Export Plug-In . SVG Version: 6.00 Build 0)  -->
<!DOCTYPE svg PUBLIC "-//W3C//DTD SVG 1.1//EN" "http://www.w3.org/Graphics/SVG/1.1/DTD/svg11.dtd">
<svg version="1.1" id="Layer_1" xmlns="http://www.w3.org/2000/svg" xmlns:xlink="http://www.w3.org/1999/xlink" x="0px" y="0px"
	 width="180.47px" height="358.638px" viewBox="291.971 60.83 180.47 358.638"
	 enable-background="new 291.971 60.83 180.47 358.638" xml:space="preserve">
<title>Drop</title>
<g>
	<path fill="#353535" d="M454.654,248.153c-6.826-20.73-15.527-40.873-20.801-62.05c-12.369-49.679-19.299-80.976,6.309-125.272
		c-27.486,44.675-44.924,63.391-81.169,101.31c-19.314,20.207-39.864,39.439-56.273,62.068c-1.74,2.398-3.428,4.846-5.063,7.334
		L454.66,343.456c4.816-9.724,8.01-20.248,9.27-31.025C466.465,290.755,461.479,268.881,454.654,248.153z"/>
</g>
<path fill="#353535" d="M315.437,254.537c-13.797,20.989-23.567,45.042-23.465,70.031c0.097,23.968,9.635,47.769,26.118,65.168
	c16.485,17.396,39.742,28.205,63.668,29.581c23.927,1.374,48.271-6.7,66.63-22.106c10.045-8.43,18.234-19.009,24.053-30.76
	L315.437,254.537z"/>
</svg>
