<?xml version="1.0" encoding="utf-8"?>
<!-- Generator: Adobe Illustrator 15.0.0, SVG Export Plug-In . SVG Version: 6.00 Build 0)  -->
<!DOCTYPE svg PUBLIC "-//W3C//DTD SVG 1.1//EN" "http://www.w3.org/Graphics/SVG/1.1/DTD/svg11.dtd">
<svg version="1.1" id="Layer_1" xmlns="http://www.w3.org/2000/svg" xmlns:xlink="http://www.w3.org/1999/xlink" x="0px" y="0px"
	 width="284.718px" height="470.825px" viewBox="244.653 60.83 284.718 470.825"
	 enable-background="new 244.653 60.83 284.718 470.825" xml:space="preserve">
<title>Drop</title>
<g>
	<g>
		<path fill="#353535" d="M458.327,248.153c-6.826-20.73-15.527-40.873-20.801-62.05c-12.369-49.679-19.299-80.976,6.309-125.272
			c-27.486,44.675-44.924,63.391-81.168,101.31c-19.314,20.207-39.864,39.439-56.273,62.068c-1.74,2.398-3.428,4.846-5.063,7.334
			l157.003,111.914c4.816-9.724,8.01-20.248,9.27-31.025C470.138,290.755,465.151,268.881,458.327,248.153z"/>
	</g>
	<path fill="#333333" d="M319.11,254.537c-13.797,20.989-23.567,45.042-23.465,70.031c0.097,23.968,9.635,47.769,26.118,65.168
		c16.485,17.396,39.742,28.205,63.668,29.581c23.927,1.374,48.271-6.7,66.63-22.106c10.045-8.43,18.234-19.009,24.053-30.76
		L319.11,254.537z"/>
</g>
<text transform="matrix(1 0 0 1 244.6533 502.6174)"><tspan x="0" y="0" fill="#353535" font-family="'Montserrat-Regular'" font-size="102.9732" letter-spacing="-8">t</tspan><tspan x="33.878" y="0" fill="#353535" font-family="'Montserrat-Regular'" font-size="102.9732" letter-spacing="-5">r</tspan><tspan x="68.683" y="0" fill="#353535" font-family="'Montserrat-Regular'" font-size="102.9732" letter-spacing="-11">d</tspan><tspan x="127.17" y="0" fill="#353535" font-family="'Montserrat-Regular'" font-size="102.9732" letter-spacing="-5">r</tspan><tspan x="161.975" y="0" fill="#353535" font-family="'Montserrat-Regular'" font-size="102.9732" letter-spacing="-8">op</tspan></text>
</svg>
