<?xml version="1.0" encoding="utf-8"?>
<!-- Generator: Adobe Illustrator 15.0.0, SVG Export Plug-In . SVG Version: 6.00 Build 0)  -->
<!DOCTYPE svg PUBLIC "-//W3C//DTD SVG 1.1//EN" "http://www.w3.org/Graphics/SVG/1.1/DTD/svg11.dtd">
<svg version="1.1" id="Layer_1" xmlns="http://www.w3.org/2000/svg" xmlns:xlink="http://www.w3.org/1999/xlink" x="0px" y="0px"
	 width="375.401px" height="489.191px" viewBox="198.179 60.83 375.401 489.191"
	 enable-background="new 198.179 60.83 375.401 489.191" xml:space="preserve">
<title>Drop</title>
<g>
	<path fill="#353535" d="M454.654,248.153c-6.826-20.73-15.527-40.873-20.801-62.05c-12.369-49.679-19.299-80.976,6.309-125.272
		c-27.486,44.675-44.924,63.391-81.169,101.31c-19.314,20.207-39.864,39.439-56.273,62.068c-1.74,2.398-3.428,4.846-5.063,7.334
		L454.66,343.456c4.816-9.724,8.01-20.248,9.27-31.025C466.465,290.755,461.479,268.881,454.654,248.153z"/>
</g>
<path fill="#353535" d="M315.437,254.537c-13.797,20.989-23.567,45.042-23.465,70.031c0.097,23.968,9.635,47.769,26.118,65.168
	c16.485,17.396,39.742,28.205,63.668,29.581c23.927,1.374,48.271-6.7,66.63-22.106c10.045-8.43,18.234-19.009,24.053-30.76
	L315.437,254.537z"/>
<g>
	<path fill="#353535" d="M243.72,512.74c-4.955,2.95-10.146,4.602-15.456,4.602c-9.438,0-17.579-5.427-17.579-18.287v-32.563h-8.849
		v-10.146h8.849V439.12h13.45v17.226h18.523v10.146h-18.523v30.085c0,6.489,2.478,8.495,6.725,8.495
		c2.832,0,5.781-0.944,9.438-2.714L243.72,512.74z"/>
	<path fill="#353535" d="M291.5,453.515v12.978c-12.624-0.708-20.646,6.725-21.708,17.461v32.799h-13.568v-62.766h13.568v12.506
		C274.04,457.997,281.59,453.515,291.5,453.515z"/>
	<path fill="#353535" d="M362.523,429.21v87.542h-13.567v-10.736c-4.483,7.314-12.034,11.326-22.063,11.326
		c-18.051,0-30.085-13.096-30.085-32.209c0-18.877,12.152-31.736,29.849-31.736c10.146,0,17.697,4.129,22.299,11.444V429.21H362.523
		z M348.956,485.605c0-12.151-7.905-20.646-19.231-20.646s-19.231,8.613-19.349,20.646c0.118,11.917,7.905,20.411,19.349,20.411
		C341.05,506.016,348.956,497.522,348.956,485.605z"/>
	<path fill="#353535" d="M418.441,453.515v12.978c-12.623-0.708-20.646,6.725-21.708,17.461v32.799h-13.568v-62.766h13.568v12.506
		C400.98,457.997,408.531,453.515,418.441,453.515z"/>
	<path fill="#353535" d="M489.229,485.251c0,18.995-13.33,31.973-32.68,31.973c-19.467,0-32.799-12.978-32.799-31.973
		c0-18.877,13.332-31.736,32.799-31.736C475.898,453.515,489.229,466.374,489.229,485.251z M437.318,485.488
		c0,12.151,7.904,20.41,19.23,20.41c11.209,0,19.113-8.259,19.113-20.41c0-12.034-7.904-20.411-19.113-20.411
		C445.223,465.076,437.318,473.453,437.318,485.488z"/>
	<path fill="#353535" d="M569.453,485.605c0,18.76-11.797,31.619-29.73,31.619c-10.029,0-17.58-4.011-22.18-11.326v33.743h-13.568
		v-85.654h13.568v10.854c4.6-7.315,12.15-11.326,21.943-11.326C557.301,453.515,569.453,466.492,569.453,485.605z M555.768,485.133
		c0-11.68-7.904-20.292-19.113-20.292c-11.207,0-19.111,8.494-19.111,20.292c0,12.152,7.904,20.529,19.111,20.529
		C547.863,505.662,555.768,497.167,555.768,485.133z"/>
</g>
</svg>
